<svg height="16" overflow="visible" viewBox="0 0 16 16" width="16" xmlns="http://www.w3.org/2000/svg"><g><defs><path id="path-17325123656316" d="M9 9 C9 9 4 9 4 9 C4 9 4 10 4 10 C4 10 9 10 9 10 C9 10 10 10 10 10 C10 10 10 9 10 9 C10 9 10 4 10 4 C10 4 9 4 9 4 C9 4 9 9 9 9 Z" vector-effect="non-scaling-stroke"/></defs> <path d="M5 5 C5 5 0 5 0 5 C0 5 0 6 0 6 C0 6 5 6 5 6 C5 6 6 6 6 6 C6 6 6 5 6 5 C6 5 6 0 6 0 C6 0 5 0 5 0 C5 0 5 5 5 5 Z" style="stroke-width: 0; stroke-linecap: butt; stroke-linejoin: miter; fill: rgb(18, 18, 18);" vector-effect="non-scaling-stroke"/></g><g><defs><path id="path-17325123656294" d="M14 14 C14 14 14 15 14 15 C14 15 14 20 14 20 C14 20 15 20 15 20 C15 20 15 15 15 15 C15 15 20 15 20 15 C20 15 20 14 20 14 C20 14 15 14 15 14 C15 14 14 14 14 14 Z" vector-effect="non-scaling-stroke"/></defs> <path d="M10 10 C10 10 10 11 10 11 C10 11 10 16 10 16 C10 16 11 16 11 16 C11 16 11 11 11 11 C11 11 16 11 16 11 C16 11 16 10 16 10 C16 10 11 10 11 10 C11 10 10 10 10 10 Z" style="stroke-width: 0; stroke-linecap: butt; stroke-linejoin: miter; fill: rgb(18, 18, 18);" vector-effect="non-scaling-stroke"/></g></svg>