<svg version="1.2" xmlns="http://www.w3.org/2000/svg" xmlns:xlink="http://www.w3.org/1999/xlink" overflow="visible" preserveAspectRatio="none" viewBox="0 0 12 12" width="12" height="12"><g transform="translate(0, 0)"><defs><path id="path-173251236564114" d="M12.5 6 C12.5 6 11.5 6 11.5 6 C11.5 6 11.5 11.5 11.5 11.5 C11.5 11.5 6 11.5 6 11.5 C6 11.5 6 12.5 6 12.5 C6 12.5 11.5 12.5 11.5 12.5 C11.5 12.5 11.5 18 11.5 18 C11.5 18 12.5 18 12.5 18 C12.5 18 12.5 12.5 12.5 12.5 C12.5 12.5 18 12.5 18 12.5 C18 12.5 18 11.5 18 11.5 C18 11.5 12.5 11.5 12.5 11.5 C12.5 11.5 12.5 6 12.5 6 Z" vector-effect="non-scaling-stroke"/></defs><g transform="translate(-6, -6)"><path d="M12.5 6 C12.5 6 11.5 6 11.5 6 C11.5 6 11.5 11.5 11.5 11.5 C11.5 11.5 6 11.5 6 11.5 C6 11.5 6 12.5 6 12.5 C6 12.5 11.5 12.5 11.5 12.5 C11.5 12.5 11.5 18 11.5 18 C11.5 18 12.5 18 12.5 18 C12.5 18 12.5 12.5 12.5 12.5 C12.5 12.5 18 12.5 18 12.5 C18 12.5 18 11.5 18 11.5 C18 11.5 12.5 11.5 12.5 11.5 C12.5 11.5 12.5 6 12.5 6 Z" style="stroke-width: 0; stroke-linecap: butt; stroke-linejoin: miter; fill: rgb(18, 18, 18);" vector-effect="non-scaling-stroke"/></g></g></svg>