<svg height="16" overflow="visible" viewBox="0 0 16 16" width="16" xmlns="http://www.w3.org/2000/svg"><g><defs><path id="path-173250719406310" d="M4 4 C4 4 4 5 4 5 C4 5 4 10 4 10 C4 10 5 10 5 10 C5 10 5 5 5 5 C5 5 10 5 10 5 C10 5 10 4 10 4 C10 4 5 4 5 4 C5 4 4 4 4 4 Z" vector-effect="non-scaling-stroke"/></defs> <path d="M0 0 C0 0 0 1 0 1 C0 1 0 6 0 6 C0 6 1 6 1 6 C1 6 1 1 1 1 C1 1 6 1 6 1 C6 1 6 0 6 0 C6 0 1 0 1 0 C1 0 0 0 0 0 Z" style="stroke-width: 0; stroke-linecap: butt; stroke-linejoin: miter; fill: rgb(18, 18, 18);" vector-effect="non-scaling-stroke"/></g><g><defs><path id="path-17325071940638" d="M19 19 C19 19 14 19 14 19 C14 19 14 20 14 20 C14 20 19 20 19 20 C19 20 20 20 20 20 C20 20 20 19 20 19 C20 19 20 14 20 14 C20 14 19 14 19 14 C19 14 19 19 19 19 Z" vector-effect="non-scaling-stroke"/></defs> <path d="M15 15 C15 15 10 15 10 15 C10 15 10 16 10 16 C10 16 15 16 15 16 C15 16 16 16 16 16 C16 16 16 15 16 15 C16 15 16 10 16 10 C16 10 15 10 15 10 C15 10 15 15 15 15 Z" style="stroke-width: 0; stroke-linecap: butt; stroke-linejoin: miter; fill: rgb(18, 18, 18);" vector-effect="non-scaling-stroke"/></g></svg>